# xmcd CD database file
#
# Track frame offsets:
#	150
#	17369
#	38989
#	58150
#	78008
#
# Disc length: 1273 seconds
#
# Revision: 0
# Processed by: cddbd v1.5.2PL0 Copyright (c) Steve Scherf et al.
# Submitted via: CDex 1.70beta2
#
DISCID=2f04f705
DTITLE=in the sky - motif
DYEAR=2008
DGENRE=New Age
TTITLE0=Steps to the Sky -空への階段-
TTITLE1=L'empire des Lumieres -光の帝国-
TTITLE2=Rain and Frogs -雨露と蛙-
TTITLE3=The Pendulum of Your Heart -心の振子-
TTITLE4=The Dream of Butterfly -蝶の夢-
EXTD=YEAR: 2008
EXTT0=
EXTT1=
EXTT2=
EXTT3=
EXTT4=
PLAYORDER=
